<?xml version="1.0" encoding="UTF-8"?>
<svg xmlns="http://www.w3.org/2000/svg" width="96" height="96" viewBox="0 0 96 96" fill="none">
  <g clip-path="url(#clip0_324_2557)">
    <path d="M39.7953 12.5983H43.6696L36.9889 28.594H33.6357L30.8912 21.572L28.1777 28.594H24.8245L18.1748 12.5983H22.0181L26.7745 24.7474L28.7245 19.5583L25.9182 12.6293H29.2095L30.8861 17.5447L32.5936 12.6293H35.8849L33.1095 19.5583L35.0286 24.7474L39.785 12.5983H39.7953Z" fill="#E5AC23"></path>
    <path d="M52.3925 28.8986C51.1131 28.8986 49.9524 28.6818 48.9155 28.2429C47.8786 27.804 46.9964 27.2102 46.2639 26.4564C45.5313 25.7026 44.969 24.83 44.5718 23.8335C44.1746 22.837 43.9785 21.7889 43.9785 20.6891C43.9785 19.5893 44.1694 18.4741 44.5563 17.4672C44.9432 16.4604 45.5004 15.5775 46.2329 14.8133C46.9655 14.0492 47.8528 13.4451 48.9 12.9959C49.9472 12.5467 51.1234 12.3246 52.4235 12.3246C53.7235 12.3246 54.8894 12.5467 55.916 12.9959C56.9426 13.4451 57.8144 14.044 58.5366 14.7978C59.2589 15.5517 59.8057 16.4243 60.1823 17.4208C60.5589 18.4173 60.7446 19.4551 60.7446 20.5342C60.7446 20.7975 60.7394 21.0505 60.7291 21.2983C60.7188 21.541 60.693 21.7475 60.6517 21.9076H48.3016C48.3635 22.5375 48.5131 23.1003 48.7607 23.5857C49.0032 24.0762 49.3179 24.4892 49.7048 24.8352C50.0917 25.1811 50.5302 25.4444 51.0151 25.6303C51.5052 25.811 52.0108 25.9039 52.5421 25.9039C53.3572 25.9039 54.1207 25.7077 54.8429 25.3102C55.5652 24.9126 56.0553 24.3911 56.3235 23.7406L59.8315 24.7164C59.2434 25.9349 58.2993 26.9418 57.0096 27.7214C55.7199 28.5062 54.1775 28.8986 52.3874 28.8986H52.3925ZM56.5402 19.2537C56.437 18.0507 55.9985 17.0903 55.2144 16.3675C54.4302 15.6446 53.481 15.2832 52.3616 15.2832C51.8147 15.2832 51.2988 15.3813 50.8191 15.5723C50.3393 15.7634 49.9214 16.037 49.5552 16.3829C49.1889 16.7289 48.8897 17.1471 48.6575 17.6325C48.4254 18.123 48.2861 18.6599 48.2448 19.2485H56.5402V19.2537Z" fill="#E5AC23"></path>
    <path d="M17.7924 29.8538H21.5119L29.7454 51.5239H25.4171L23.4052 46.1232H15.8424L13.8614 51.5239H9.5332L17.7976 29.8538H17.7924ZM22.6417 43.1595L19.6548 34.6453L16.544 43.1595H22.6417Z" fill="#22024e"></path>
    <path d="M36.2456 51.8285C34.6 51.8285 33.3464 51.3019 32.4952 50.2434C31.644 49.185 31.2158 47.6205 31.2158 45.5449V35.5334H35.3016V44.662C35.3016 47.1248 36.1837 48.3537 37.9532 48.3537C38.7477 48.3537 39.5112 48.1162 40.254 47.636C40.9969 47.1558 41.6005 46.4278 42.0699 45.452V35.5334H46.1557V46.8254C46.1557 47.2539 46.2331 47.5586 46.3827 47.7393C46.5374 47.92 46.7851 48.0232 47.1307 48.0439V51.5239C46.7232 51.6065 46.3827 51.6582 46.1093 51.6788C45.8358 51.6995 45.5831 51.7098 45.3612 51.7098C44.6287 51.7098 44.0354 51.5394 43.5763 51.2038C43.1172 50.8682 42.8489 50.4035 42.7664 49.8149L42.6735 48.5344C41.9616 49.6342 41.0485 50.4551 39.929 51.0076C38.8096 51.5549 37.5818 51.8337 36.2405 51.8337L36.2456 51.8285Z" fill="#22024e"></path>
    <path d="M56.8288 51.8285C55.73 51.8285 54.7137 51.6168 53.78 51.1883C52.8462 50.7597 52.0415 50.1711 51.3708 49.4173C50.7002 48.6635 50.174 47.7857 49.8025 46.7789C49.426 45.7721 49.2402 44.6878 49.2402 43.526C49.2402 42.3643 49.4156 41.2904 49.7716 40.2887C50.1276 39.2922 50.6176 38.4196 51.2522 37.6658C51.8815 36.9119 52.6347 36.3233 53.5066 35.8948C54.3784 35.4662 55.3379 35.2545 56.3748 35.2545C57.5511 35.2545 58.6138 35.5385 59.563 36.1065C60.507 36.6744 61.2447 37.4179 61.7761 38.337V29.2394H65.8619V46.8202C65.8619 47.2487 65.9341 47.5534 66.0734 47.7341C66.2178 47.9148 66.4603 48.0181 66.8059 48.0387V51.5187C66.094 51.6581 65.5162 51.7304 65.0674 51.7304C64.3349 51.7304 63.7364 51.5497 63.267 51.1831C62.7975 50.8165 62.5344 50.3415 62.4725 49.7477L62.3797 48.7409C61.7916 49.7581 60.992 50.5274 59.986 51.0437C58.98 51.56 57.9276 51.8234 56.8288 51.8234V51.8285ZM57.8967 48.3485C58.2836 48.3485 58.6808 48.2814 59.0884 48.1523C59.4959 48.0181 59.8725 47.8322 60.2182 47.5895C60.5638 47.3468 60.8733 47.0629 61.1467 46.7324C61.4201 46.4071 61.6317 46.0509 61.7709 45.6636V41.848C61.6059 41.3988 61.3789 40.9909 61.0848 40.614C60.7908 40.2371 60.4555 39.9118 60.0789 39.6381C59.7023 39.3645 59.305 39.1425 58.8872 38.9824C58.4693 38.8223 58.0566 38.7397 57.6542 38.7397C57.0455 38.7397 56.478 38.874 55.9621 39.1373C55.4411 39.4006 55.0026 39.7621 54.6363 40.2216C54.2701 40.6811 53.9863 41.2026 53.78 41.7912C53.5788 42.3798 53.4756 42.9942 53.4756 43.6241C53.4756 44.2954 53.5891 44.915 53.8109 45.4881C54.0328 46.056 54.3371 46.5569 54.724 46.9854C55.1109 47.414 55.5752 47.7496 56.1117 47.9922C56.6483 48.2349 57.2467 48.3588 57.8967 48.3588V48.3485Z" fill="#22024e"></path>
    <path d="M69.8809 33.3029V29.2446H73.9666V33.3029H69.8809ZM69.8809 51.5239V35.5282H73.9666V51.5239H69.8809Z" fill="#22024e"></path>
    <path d="M87.23 50.6978C86.6832 50.9405 86.0125 51.1883 85.2181 51.431C84.4236 51.6736 83.593 51.7976 82.7161 51.7976C82.1486 51.7976 81.6121 51.7253 81.1168 51.5859C80.6164 51.4413 80.1831 51.2141 79.8065 50.8992C79.4299 50.5842 79.1307 50.1763 78.9089 49.6806C78.687 49.1798 78.5735 48.5757 78.5735 47.8632V38.6778H76.4688V35.5334H78.5735V30.3443H82.6593V35.5334H86.0125V38.6778H82.6593V46.4898C82.6593 47.0577 82.8089 47.4604 83.103 47.698C83.397 47.9303 83.7581 48.0491 84.1863 48.0491C84.6145 48.0491 85.0272 47.9768 85.4347 47.8374C85.8423 47.698 86.1673 47.574 86.4097 47.4708L87.2352 50.7081L87.23 50.6978Z" fill="#22024e"></path>
    <path d="M11.6641 74.4487V70.0547H15.0173V74.4487H11.6641Z" fill="#55BBBC"></path>
    <path d="M16.6936 66.456C16.6936 65.3356 16.8845 64.2771 17.2714 63.2806C17.6583 62.2841 18.2155 61.4115 18.948 60.6577C19.6806 59.9038 20.5627 59.3049 21.5996 58.8557C22.6366 58.4065 23.8076 58.1845 25.1076 58.1845C26.8565 58.1845 28.3474 58.5614 29.5751 59.3152C30.8029 60.0691 31.7264 61.0552 32.3351 62.2738L28.3422 63.4923C27.9966 62.9037 27.5374 62.4493 26.97 62.1343C26.4025 61.8194 25.768 61.6593 25.0767 61.6593C24.4886 61.6593 23.9366 61.7781 23.431 62.0104C22.9203 62.2428 22.4818 62.5681 22.1052 62.9863C21.7286 63.4045 21.4346 63.9053 21.2231 64.4991C21.0115 65.0877 20.9032 65.7383 20.9032 66.4508C20.9032 67.1633 21.0167 67.8139 21.2385 68.4025C21.4604 68.9911 21.7596 69.5023 22.1362 69.9308C22.5128 70.3594 22.9564 70.6898 23.462 70.9222C23.9675 71.1545 24.5092 71.2733 25.0767 71.2733C25.8092 71.2733 26.485 71.0926 27.1041 70.726C27.7231 70.3594 28.1565 69.9102 28.3989 69.3835L32.3918 70.6072C31.845 71.8257 30.9371 72.8274 29.6783 73.5967C28.4196 74.3712 26.9029 74.7585 25.1334 74.7585C23.8334 74.7585 22.6624 74.5364 21.6254 74.0872C20.5885 73.638 19.7064 73.0339 18.9738 72.2698C18.2413 71.5056 17.679 70.6227 17.2817 69.6159C16.8845 68.609 16.6885 67.5557 16.6885 66.456H16.6936Z" fill="#55BBBC"></path>
    <path d="M81.2665 74.4487H77.1807V65.475C77.1807 64.1945 76.9641 63.2599 76.5256 62.6662C76.0871 62.0776 75.4835 61.7833 74.7097 61.7833C73.8946 61.7833 73.1362 62.0931 72.4243 62.7126C71.7124 63.3322 71.2068 64.1429 70.8973 65.1394V74.4487H66.8116V65.475C66.8116 64.1945 66.5949 63.2599 66.1564 62.6662C65.7179 62.0776 65.1143 61.7833 64.3405 61.7833C63.5667 61.7833 62.7877 62.0879 62.0706 62.6972C61.3484 63.3064 60.8377 64.1119 60.5281 65.1084V74.4487H56.4424V58.453H60.1309V61.4115C60.719 60.3737 61.529 59.5734 62.5556 59.0158C63.5822 58.4581 64.7584 58.1793 66.079 58.1793C67.3997 58.1793 68.4572 58.5046 69.1898 59.1552C69.9223 59.8057 70.3918 60.6112 70.593 61.5664C71.243 60.4666 72.0684 59.6302 73.064 59.0467C74.0597 58.4685 75.1998 58.1793 76.4791 58.1793C77.4542 58.1793 78.2589 58.36 78.8883 58.7266C79.5177 59.0932 80.0078 59.5734 80.3534 60.162C80.699 60.7506 80.9363 61.4218 81.0705 62.1757C81.2046 62.9295 81.2665 63.6937 81.2665 64.463V74.4435V74.4487Z" fill="#55BBBC"></path>
    <path d="M82.8915 60.7403V59.0158H82.2363V58.7163H83.8923V59.0158H83.232V60.7403H82.8915ZM84.1193 60.7403V58.7163H84.6145L85.1252 60.3324L85.6205 58.7163H86.1054V60.7403H85.7959V59.0416L85.2749 60.7403H84.9705L84.4237 59.0158V60.7403H84.1141H84.1193Z" fill="#55BBBC"></path>
    <path d="M61.7145 83.6444C59.5324 81.2228 57.3554 78.8013 55.1732 76.3849C54.7553 75.9202 54.2549 75.8531 53.7184 76.1783C53.6771 76.2042 53.6359 76.2197 53.641 76.2197C52.8672 75.3626 52.114 74.521 51.366 73.6948L51.3196 73.7361C52.9807 71.9342 53.9918 69.5281 53.9918 66.8845C53.9918 61.2927 49.4521 56.7594 43.8548 56.7594C38.2575 56.7594 33.7178 61.2927 33.7178 66.8845C33.7178 72.4763 38.2575 77.0096 43.8548 77.0096C46.0215 77.0096 48.0334 76.3281 49.6791 75.1664C50.4529 76.0235 51.2061 76.8651 51.9696 77.7118C51.5517 78.3159 51.5362 78.7703 51.9541 79.235C54.1053 81.6307 56.2617 84.0213 58.4129 86.4119C58.5935 86.6132 59.001 86.6339 59.2022 86.4532C60.0328 85.7097 60.8582 84.9662 61.6836 84.2227C61.8951 84.0316 61.9054 83.8612 61.7145 83.6495V83.6444ZM51.2474 66.8794C51.2474 70.9532 47.9406 74.2576 43.86 74.2576C39.7794 74.2576 36.4726 70.9532 36.4726 66.8794C36.4726 62.8056 39.7794 59.5011 43.86 59.5011C47.9406 59.5011 51.2474 62.8056 51.2474 66.8794Z" fill="#22024e"></path>
  </g>
  <defs>
    <clipPath id="clip0_324_2557">
      <rect width="96" height="96" fill="white"></rect>
    </clipPath>
  </defs>
</svg>
